<?xml version="1.0" standalone="no"?>
<!DOCTYPE svg PUBLIC "-//W3C//DTD SVG 20010904//EN"
 "http://www.w3.org/TR/2001/REC-SVG-20010904/DTD/svg10.dtd">
<svg version="1.0" xmlns="http://www.w3.org/2000/svg" viewBox="0 0 200.000000 200.000000"
 preserveAspectRatio="xMidYMid meet">

<g transform="translate(10.000000,190.000000) scale(0.100000,-0.100000)"
fill="#FFFFFF" stroke="none">
<path d="M487 1583 c-4 -3 -7 -36 -7 -73 l0 -67 -42 -6 c-54 -7 -88 -41 -95
-95 l-6 -42 -57 0 c-70 0 -90 -7 -90 -29 0 -30 22 -41 87 -41 l63 0 0 -40 0
-40 -59 0 c-75 0 -91 -6 -91 -35 0 -29 16 -35 91 -35 l59 0 0 -40 0 -39 -66
-3 c-70 -3 -94 -18 -81 -52 5 -13 21 -16 77 -16 l70 0 0 -40 c0 -43 -8 -47
-83 -42 -40 3 -69 -15 -65 -41 3 -20 10 -22 76 -25 l72 -3 0 -44 0 -44 -72 -3
c-63 -3 -73 -6 -76 -22 -6 -30 26 -46 90 -46 l58 0 0 -40 0 -39 -72 -3 c-68
-3 -73 -5 -76 -27 -5 -32 12 -41 84 -41 l61 0 7 -41 c9 -56 44 -89 96 -89 l40
0 0 -74 c0 -61 3 -75 17 -81 31 -11 53 29 53 96 l0 59 40 0 40 0 0 -69 c0 -81
17 -106 50 -76 16 14 20 31 20 82 l0 63 40 0 40 0 0 -68 c0 -84 19 -111 54
-76 11 11 16 35 16 80 l0 64 40 0 39 0 3 -71 c2 -54 7 -75 20 -82 32 -20 48 8
48 84 l0 69 40 0 40 0 0 -64 c0 -45 5 -69 16 -80 36 -37 59 -3 56 80 l-3 64
45 0 46 0 0 -74 c0 -61 3 -75 17 -81 31 -11 53 29 53 96 l0 59 33 0 c48 0 97
48 97 94 l0 36 58 0 c69 0 103 19 86 47 -9 14 -26 19 -78 21 l-66 3 0 39 0 40
58 0 c64 0 96 16 90 46 -3 16 -13 19 -76 22 l-72 3 0 44 0 44 73 3 c65 3 72 5
75 25 4 28 -29 47 -67 38 -16 -3 -40 -3 -55 1 -22 5 -26 11 -26 45 l0 38 72 3
c63 3 73 6 76 22 6 30 -26 46 -90 46 l-58 0 0 40 0 39 66 3 c49 2 70 7 77 20
20 31 -8 48 -79 48 l-64 0 0 40 0 39 66 3 c49 2 70 7 77 20 20 31 -8 48 -79
48 l-64 0 0 34 c0 49 -41 94 -91 102 l-39 7 0 57 c0 44 -4 61 -20 75 -35 32
-50 13 -50 -65 l0 -70 -46 0 -45 0 3 59 c3 60 -10 91 -38 91 -21 0 -34 -35
-34 -94 l0 -56 -40 0 -39 0 -3 66 c-2 49 -7 70 -20 77 -31 20 -48 -8 -48 -79
l0 -64 -40 0 -39 0 -3 66 c-2 49 -7 70 -20 77 -31 20 -48 -8 -48 -79 l0 -64
-40 0 -40 0 0 56 c0 64 -13 94 -39 94 -25 0 -31 -19 -31 -91 l0 -59 -40 0 -40
0 0 59 c0 41 -5 65 -16 75 -16 17 -36 21 -47 9z m281 -340 l-3 -48 -90 -3
c-110 -3 -115 -8 -115 -109 l0 -73 -40 0 -40 0 0 140 0 140 146 0 145 0 -3
-47z m192 -1 c0 -46 -3 -50 -75 -122 -70 -70 -77 -74 -114 -71 -73 5 -108 -36
-95 -112 5 -33 12 -41 42 -54 74 -31 139 16 130 96 -2 27 7 41 74 108 88 90
98 107 98 162 l0 41 70 0 70 0 0 -99 0 -99 -71 -4 -71 -4 -54 -56 c-48 -50
-54 -61 -54 -99 0 -35 -6 -48 -35 -75 l-34 -34 -181 0 -180 0 0 70 0 70 54 0
c70 0 79 11 80 105 l1 75 87 0 c108 0 118 8 118 91 l0 59 70 0 70 0 0 -48z
m340 -357 l0 -405 -45 0 -45 0 0 79 c0 76 -1 81 -35 121 -42 50 -50 114 -15
125 54 17 62 116 13 155 -35 27 -75 25 -112 -6 -44 -36 -44 -94 -1 -134 25
-23 30 -36 30 -75 0 -40 5 -54 35 -86 33 -37 35 -43 35 -109 l0 -70 -341 0
-340 0 3 43 3 42 107 5 c93 4 109 8 130 28 19 17 36 22 77 22 46 0 57 -4 81
-30 64 -69 173 -16 156 76 -14 72 -99 98 -150 45 -24 -25 -36 -29 -95 -33 -56
-3 -73 -8 -100 -31 -30 -25 -39 -27 -122 -27 l-89 0 0 70 0 70 175 0 c197 0
208 3 268 69 29 32 37 49 37 79 0 31 7 45 43 80 41 40 45 42 107 42 95 0 100
7 100 147 l0 113 45 0 45 0 0 -405z m-510 100 c20 -24 3 -57 -28 -53 -27 3
-39 26 -28 54 7 18 40 18 56 -1z m354 -77 c19 -27 5 -58 -29 -58 -28 0 -41 30
-25 60 14 26 35 26 54 -2z m-166 -260 c2 -19 -2 -28 -18 -33 -24 -8 -50 10
-50 35 0 24 10 31 40 28 19 -2 26 -10 28 -30z"/>
</g>
</svg>
